# xmcd
#
# Track frame offsets: 
#        150
#        23442
#        40541
#        56070
#        76622
#        95924
#        116206
#        134898
#        153961
#        167332
#
# Disc length: 2520 seconds
#
# Revision: 3
# Processed by: cddbd v1.5.2PL0 Copyright (c) Steve Scherf et al.
# Submitted via: ExactAudioCopy v0.95b4
#
DISCID=7609d60a
DTITLE=Twilight Guardians - Sintrade
DYEAR=2006
DGENRE=Power Metal
TTITLE0=Through The Stars
TTITLE1=Wanderer
TTITLE2=Skin To Skin
TTITLE3=Still
TTITLE4=My Spoiled Reign
TTITLE5=Never Alone
TTITLE6=Room Of Shadow And Light
TTITLE7=Flawless
TTITLE8=La Isla Bonita (Madonna Cover) 
TTITLE9=Inside
EXTD=YEAR: 2005
EXTT0=
EXTT1=
EXTT2=
EXTT3=
EXTT4=
EXTT5=
EXTT6=
EXTT7=
EXTT8=
EXTT9=
PLAYORDER=
